<svg width="12" height="12" viewBox="0 0 12 12" fill="none" xmlns="http://www.w3.org/2000/svg">
<g clip-path="url(#clip0_326_303)">
<path fill-rule="evenodd" clip-rule="evenodd" d="M5.99991 6.70695L8.82841 9.53545C8.92271 9.62653 9.04901 9.67693 9.18011 9.67579C9.31121 9.67465 9.43662 9.62207 9.52932 9.52936C9.62203 9.43666 9.67461 9.31125 9.67575 9.18015C9.67689 9.04906 9.62649 8.92275 9.53541 8.82845L6.70691 5.99995L9.53541 3.17145C9.62649 3.07715 9.67689 2.95085 9.67575 2.81975C9.67461 2.68865 9.62203 2.56325 9.52932 2.47054C9.43662 2.37784 9.31121 2.32525 9.18011 2.32412C9.04901 2.32298 8.92271 2.37337 8.82841 2.46445L5.99991 5.29295L3.17141 2.46445C3.07669 2.37562 2.95112 2.32714 2.82128 2.32924C2.69144 2.33135 2.56751 2.38389 2.47572 2.47575C2.38393 2.56761 2.33147 2.69157 2.32945 2.82141C2.32744 2.95126 2.37602 3.07679 2.46491 3.17145L5.29291 5.99995L2.46441 8.82845C2.41666 8.87458 2.37857 8.92975 2.35236 8.99075C2.32616 9.05175 2.31236 9.11736 2.31179 9.18375C2.31121 9.25014 2.32386 9.31598 2.349 9.37743C2.37414 9.43888 2.41127 9.4947 2.45821 9.54165C2.50516 9.5886 2.56099 9.62572 2.62243 9.65086C2.68388 9.676 2.74972 9.68866 2.81611 9.68808C2.8825 9.6875 2.94811 9.67371 3.00911 9.6475C3.07012 9.6213 3.12529 9.58321 3.17141 9.53545L5.99991 6.70695Z" fill="#515151"/>
</g>
<defs>
<clipPath id="clip0_326_303">
<rect width="12" height="12" fill="white"/>
</clipPath>
</defs>
</svg>
