<svg width="54" height="78" viewBox="0 0 54 78" fill="none" xmlns="http://www.w3.org/2000/svg">
<path d="M14.18 76V69H14.91V74.8L19.39 69H20.06V76H19.33V70.21L14.85 76H14.18ZM22.2522 76V70.75H25.9722V71.37H22.7822L22.9622 71.19V76H22.2522ZM29.7083 76.05C29.2549 76.05 28.8449 75.9467 28.4783 75.74C28.1116 75.5267 27.8183 75.2233 27.5983 74.83C27.3849 74.43 27.2783 73.9433 27.2783 73.37C27.2783 72.7967 27.3849 72.3133 27.5983 71.92C27.8116 71.52 28.1016 71.2167 28.4683 71.01C28.8349 70.8033 29.2483 70.7 29.7083 70.7C30.2083 70.7 30.6549 70.8133 31.0483 71.04C31.4483 71.26 31.7616 71.5733 31.9883 71.98C32.2149 72.38 32.3283 72.8433 32.3283 73.37C32.3283 73.9033 32.2149 74.37 31.9883 74.77C31.7616 75.17 31.4483 75.4833 31.0483 75.71C30.6549 75.9367 30.2083 76.05 29.7083 76.05ZM26.9983 77.94V70.75H27.6783V72.33L27.6083 73.38L27.7083 74.44V77.94H26.9983ZM29.6583 75.42C30.0316 75.42 30.3649 75.3367 30.6583 75.17C30.9516 74.9967 31.1849 74.7567 31.3583 74.45C31.5316 74.1367 31.6183 73.7767 31.6183 73.37C31.6183 72.9633 31.5316 72.6067 31.3583 72.3C31.1849 71.9933 30.9516 71.7533 30.6583 71.58C30.3649 71.4067 30.0316 71.32 29.6583 71.32C29.2849 71.32 28.9483 71.4067 28.6483 71.58C28.3549 71.7533 28.1216 71.9933 27.9483 72.3C27.7816 72.6067 27.6983 72.9633 27.6983 73.37C27.6983 73.7767 27.7816 74.1367 27.9483 74.45C28.1216 74.7567 28.3549 74.9967 28.6483 75.17C28.9483 75.3367 29.2849 75.42 29.6583 75.42ZM38.9738 76V70.75H39.6838V76H38.9738ZM36.0638 72.6C36.7238 72.6067 37.2271 72.7533 37.5738 73.04C37.9204 73.3267 38.0938 73.74 38.0938 74.28C38.0938 74.84 37.9071 75.27 37.5338 75.57C37.1604 75.87 36.6271 76.0167 35.9338 76.01L33.8538 76V70.75H34.5638V72.58L36.0638 72.6ZM35.8838 75.47C36.3771 75.4767 36.7471 75.38 36.9938 75.18C37.2471 74.9733 37.3738 74.6733 37.3738 74.28C37.3738 73.8867 37.2504 73.6 37.0038 73.42C36.7571 73.2333 36.3838 73.1367 35.8838 73.13L34.5638 73.11V75.45L35.8838 75.47Z" fill="black"/>
<rect width="54" height="54" rx="10" fill="#EAFFE9"/>
<path d="M33.3752 24.875H30.1877C29.9059 24.875 29.6356 24.7631 29.4364 24.5638C29.2371 24.3645 29.1252 24.0943 29.1252 23.8125C29.1252 23.5307 29.2371 23.2605 29.4364 23.0612C29.6356 22.8619 29.9059 22.75 30.1877 22.75H33.3752C33.657 22.75 33.9272 22.8619 34.1265 23.0612C34.3257 23.2605 34.4377 23.5307 34.4377 23.8125C34.4377 24.0943 34.3257 24.3645 34.1265 24.5638C33.9272 24.7631 33.657 24.875 33.3752 24.875ZM23.8127 22.75H22.7502V21.6875C22.7502 21.4057 22.6382 21.1355 22.439 20.9362C22.2397 20.7369 21.9695 20.625 21.6877 20.625C21.4059 20.625 21.1356 20.7369 20.9364 20.9362C20.7371 21.1355 20.6252 21.4057 20.6252 21.6875V22.75H19.5627C19.2809 22.75 19.0106 22.8619 18.8114 23.0612C18.6121 23.2605 18.5002 23.5307 18.5002 23.8125C18.5002 24.0943 18.6121 24.3645 18.8114 24.5638C19.0106 24.7631 19.2809 24.875 19.5627 24.875H20.6252V25.9375C20.6252 26.2193 20.7371 26.4895 20.9364 26.6888C21.1356 26.8881 21.4059 27 21.6877 27C21.9695 27 22.2397 26.8881 22.439 26.6888C22.6382 26.4895 22.7502 26.2193 22.7502 25.9375V24.875H23.8127C24.0945 24.875 24.3647 24.7631 24.564 24.5638C24.7632 24.3645 24.8752 24.0943 24.8752 23.8125C24.8752 23.5307 24.7632 23.2605 24.564 23.0612C24.3647 22.8619 24.0945 22.75 23.8127 22.75ZM42.0717 36.6488C41.6713 37.2206 41.1505 37.6978 40.546 38.0469C39.9414 38.3959 39.2677 38.6084 38.5723 38.6693C37.8769 38.7301 37.1766 38.638 36.5205 38.3993C35.8645 38.1606 35.2687 37.7812 34.775 37.2877C34.7591 37.2717 34.7432 37.2558 34.7285 37.2385L29.4546 31.25H24.5405L19.2718 37.2385L19.2253 37.2877C18.3278 38.1833 17.1119 38.6866 15.8439 38.6875C15.1459 38.6872 14.4564 38.5342 13.8239 38.239C13.1914 37.9438 12.6311 37.5138 12.1825 36.979C11.734 36.4442 11.4079 35.8177 11.2273 35.1434C11.0467 34.4692 11.0159 33.7636 11.1371 33.0762C11.1364 33.07 11.1364 33.0638 11.1371 33.0576L13.3112 21.8894C13.6348 20.0474 14.5972 18.3783 16.0293 17.1755C17.4614 15.9727 19.2716 15.313 21.1418 15.3125H32.8439C34.7085 15.3155 36.5132 15.9713 37.9446 17.1662C39.376 18.3611 40.3438 20.0195 40.6799 21.8535V21.8774L42.854 33.0563C42.8547 33.0624 42.8547 33.0687 42.854 33.0748C42.9665 33.6927 42.9553 34.3267 42.8211 34.9402C42.6868 35.5537 42.4321 36.1345 42.0717 36.6488ZM32.8439 29.125C34.3938 29.125 35.8802 28.5093 36.9761 27.4134C38.072 26.3175 38.6877 24.8311 38.6877 23.2812C38.6877 21.7314 38.072 20.245 36.9761 19.1491C35.8802 18.0532 34.3938 17.4375 32.8439 17.4375H21.1418C19.7698 17.4387 18.4422 17.9238 17.3925 18.8073C16.3428 19.6908 15.6383 20.9162 15.403 22.2679V22.2852L13.2275 33.4534C13.1314 34.007 13.2133 34.577 13.4615 35.0811C13.7097 35.5853 14.1115 35.9978 14.6089 36.2592C15.1064 36.5206 15.674 36.6175 16.23 36.536C16.786 36.4545 17.3018 36.1987 17.7033 35.8055L23.2708 29.4849C23.3705 29.3718 23.4931 29.2812 23.6305 29.2192C23.7679 29.1571 23.9169 29.125 24.0677 29.125H32.8439ZM40.7728 33.4534L39.6121 27.4768C38.8981 28.6296 37.9019 29.5812 36.7175 30.2415C35.5332 30.9017 34.1999 31.2489 32.8439 31.25H32.2861L36.2971 35.8068C36.5995 36.1009 36.9673 36.3192 37.3704 36.4436C37.7735 36.5681 38.2004 36.5952 38.616 36.5227C39.3083 36.4005 39.924 36.0088 40.328 35.4334C40.732 34.8581 40.8915 34.1461 40.7715 33.4534H40.7728Z" fill="#61C561"/>
</svg>
