<?xml version="1.0"?>
<svg width="51" height="21" xmlns="http://www.w3.org/2000/svg" xmlns:svg="http://www.w3.org/2000/svg">
 <g class="layer">
  <title>Layer 1</title>
  <path d="m19.91,0.59l-1.31,2.18l-0.31,-0.1c-1.16,-0.38 -3.07,-0.3 -4.19,0.01l-0.3,0.08l-1.23,-2.09c-1.44,2.98 -1.39,5.06 -0.64,6.39c0.81,1.42 2.47,2.11 4.26,2.09c2.1,-0.03 3.83,-0.85 4.6,-2.33c0.73,-1.39 0.68,-3.46 -0.88,-6.23l0,0zm-5.99,4.32c0.79,0.01 1.26,0.66 1.35,1.58c-1.59,0.77 -2.32,0.14 -2.63,-1.14c0.49,-0.31 0.92,-0.44 1.28,-0.44l0,0zm4.69,0c0.36,0 0.79,0.13 1.28,0.44c-0.31,1.28 -1.03,1.91 -2.63,1.14c0.09,-0.92 0.56,-1.57 1.35,-1.58l0,0zm-12.61,2.19c-0.05,0 -0.1,0 -0.16,0c-1.29,0.03 -2.41,0.46 -3.25,1.14c-1.87,1.53 -2.46,4.33 -0.55,7.15c0.87,1.46 1.91,2.33 3.04,2.75c1.41,0.54 2.86,0.38 4.29,0.18c1.43,-0.2 2.83,-0.46 4.17,-0.36c1.33,0.09 2.67,0.44 3.89,1.77c0.83,0.91 2.01,-0.07 1.02,-1.04c-1.51,-1.47 -3.12,-2.04 -4.7,-2.15c-1.58,-0.11 -3.1,0.2 -4.48,0.4c-1.37,0.19 -2.59,0.28 -3.63,-0.12c-0.62,-0.23 -1.22,-0.63 -1.79,-1.33l15.12,0c0.59,-2.25 0.64,-4.57 0.08,-6.11c-0.85,0.37 -1.82,0.56 -2.85,0.57l0,0c-1.28,0.01 -2.55,-0.3 -3.56,-0.98c-0.21,0.13 -0.41,0.27 -0.61,0.41l-0.25,0.18l-0.24,-0.19c-2,-1.6 -3.91,-2.26 -5.54,-2.27l0,0z" fill="#6585F1" id="svg_2"/>
  <text fill="#000000" font-family="Serif" font-size="24" id="svg_4" stroke-width="0" text-anchor="middle" transform="matrix(0.313201 0 0 0.39214 10.1139 11.0223)" x="82.11" xml:space="preserve" y="7.96">AXALE</text>
 </g>
</svg>