<svg width="14" height="16" viewBox="0 0 14 16" fill="none" xmlns="http://www.w3.org/2000/svg">
<path d="M9.24981 12.5V13.0625C9.24981 13.6592 9.01275 14.2315 8.5908 14.6535C8.16884 15.0754 7.59654 15.3125 6.99981 15.3125C6.40307 15.3125 5.83077 15.0754 5.40882 14.6535C4.98686 14.2315 4.74981 13.6592 4.74981 13.0625V12.5M13.0354 11.355C12.1326 10.25 11.4952 9.6875 11.4952 6.64121C11.4952 3.85156 10.0707 2.8577 8.89825 2.375C8.7425 2.31102 8.5959 2.16406 8.54844 2.0041C8.34278 1.30414 7.76621 0.6875 6.99981 0.6875C6.2334 0.6875 5.65649 1.30449 5.45293 2.0048C5.40547 2.16652 5.25887 2.31102 5.10313 2.375C3.92926 2.8584 2.50614 3.84875 2.50614 6.64121C2.50438 9.6875 1.867 10.25 0.964183 11.355C0.59012 11.8127 0.917776 12.5 1.57203 12.5H12.4311C13.0818 12.5 13.4074 11.8106 13.0354 11.355Z" stroke="#B7BDFF" stroke-width="0.9375" stroke-linecap="round" stroke-linejoin="round"/>
</svg>
