<svg width="54" height="78" viewBox="0 0 54 78" fill="none" xmlns="http://www.w3.org/2000/svg">
<path d="M8.97 76L6.28 72.51L6.88 72.15L9.82 76H8.97ZM4.18 76V69H4.9V76H4.18ZM4.68 72.79V72.14H6.87V72.79H4.68ZM6.94 72.58L6.26 72.46L8.87 69H9.67L6.94 72.58ZM12.8888 76.05C12.3821 76.05 11.9254 75.9367 11.5188 75.71C11.1188 75.4767 10.8021 75.16 10.5688 74.76C10.3354 74.3533 10.2188 73.89 10.2188 73.37C10.2188 72.8433 10.3354 72.38 10.5688 71.98C10.8021 71.58 11.1188 71.2667 11.5188 71.04C11.9188 70.8133 12.3754 70.7 12.8888 70.7C13.4088 70.7 13.8688 70.8133 14.2688 71.04C14.6754 71.2667 14.9921 71.58 15.2188 71.98C15.4521 72.38 15.5688 72.8433 15.5688 73.37C15.5688 73.89 15.4521 74.3533 15.2188 74.76C14.9921 75.16 14.6754 75.4767 14.2688 75.71C13.8621 75.9367 13.4021 76.05 12.8888 76.05ZM12.8888 75.42C13.2688 75.42 13.6054 75.3367 13.8988 75.17C14.1921 74.9967 14.4221 74.7567 14.5888 74.45C14.7621 74.1367 14.8488 73.7767 14.8488 73.37C14.8488 72.9567 14.7621 72.5967 14.5888 72.29C14.4221 71.9833 14.1921 71.7467 13.8988 71.58C13.6054 71.4067 13.2721 71.32 12.8988 71.32C12.5254 71.32 12.1921 71.4067 11.8988 71.58C11.6054 71.7467 11.3721 71.9833 11.1988 72.29C11.0254 72.5967 10.9388 72.9567 10.9388 73.37C10.9388 73.7767 11.0254 74.1367 11.1988 74.45C11.3721 74.7567 11.6054 74.9967 11.8988 75.17C12.1921 75.3367 12.5221 75.42 12.8888 75.42ZM20.5362 75.38L20.3762 75.57V70.75H21.0862V75.57L20.8962 75.38H23.8262L23.6362 75.57V70.75H24.3462V76H17.0862V70.75H17.7962V75.57L17.6162 75.38H20.5362ZM28.6135 76.05C28.0668 76.05 27.5868 75.9367 27.1735 75.71C26.7602 75.4767 26.4368 75.16 26.2035 74.76C25.9702 74.3533 25.8535 73.89 25.8535 73.37C25.8535 72.85 25.9635 72.39 26.1835 71.99C26.4102 71.59 26.7168 71.2767 27.1035 71.05C27.4968 70.8167 27.9368 70.7 28.4235 70.7C28.9168 70.7 29.3535 70.8133 29.7335 71.04C30.1202 71.26 30.4235 71.5733 30.6435 71.98C30.8635 72.38 30.9735 72.8433 30.9735 73.37C30.9735 73.4033 30.9702 73.44 30.9635 73.48C30.9635 73.5133 30.9635 73.55 30.9635 73.59H26.3935V73.06H30.5835L30.3035 73.27C30.3035 72.89 30.2202 72.5533 30.0535 72.26C29.8935 71.96 29.6735 71.7267 29.3935 71.56C29.1135 71.3933 28.7902 71.31 28.4235 71.31C28.0635 71.31 27.7402 71.3933 27.4535 71.56C27.1668 71.7267 26.9435 71.96 26.7835 72.26C26.6235 72.56 26.5435 72.9033 26.5435 73.29V73.4C26.5435 73.8 26.6302 74.1533 26.8035 74.46C26.9835 74.76 27.2302 74.9967 27.5435 75.17C27.8635 75.3367 28.2268 75.42 28.6335 75.42C28.9535 75.42 29.2502 75.3633 29.5235 75.25C29.8035 75.1367 30.0435 74.9633 30.2435 74.73L30.6435 75.19C30.4102 75.47 30.1168 75.6833 29.7635 75.83C29.4168 75.9767 29.0335 76.05 28.6135 76.05ZM31.4777 75.99L31.5277 75.38C31.5744 75.3867 31.6177 75.3967 31.6577 75.41C31.7044 75.4167 31.7444 75.42 31.7777 75.42C31.9911 75.42 32.1611 75.34 32.2877 75.18C32.4211 75.02 32.5211 74.8067 32.5877 74.54C32.6544 74.2733 32.7011 73.9733 32.7277 73.64C32.7544 73.3 32.7777 72.96 32.7977 72.62L32.8877 70.75H36.7377V76H36.0277V71.16L36.2077 71.37H33.3477L33.5177 71.15L33.4377 72.67C33.4177 73.1233 33.3811 73.5567 33.3277 73.97C33.2811 74.3833 33.2044 74.7467 33.0977 75.06C32.9977 75.3733 32.8577 75.62 32.6777 75.8C32.4977 75.9733 32.2677 76.06 31.9877 76.06C31.9077 76.06 31.8244 76.0533 31.7377 76.04C31.6577 76.0267 31.5711 76.01 31.4777 75.99ZM41.0061 76.05C40.4594 76.05 39.9794 75.9367 39.5661 75.71C39.1528 75.4767 38.8294 75.16 38.5961 74.76C38.3628 74.3533 38.2461 73.89 38.2461 73.37C38.2461 72.85 38.3561 72.39 38.5761 71.99C38.8028 71.59 39.1094 71.2767 39.4961 71.05C39.8894 70.8167 40.3294 70.7 40.8161 70.7C41.3094 70.7 41.7461 70.8133 42.1261 71.04C42.5128 71.26 42.8161 71.5733 43.0361 71.98C43.2561 72.38 43.3661 72.8433 43.3661 73.37C43.3661 73.4033 43.3628 73.44 43.3561 73.48C43.3561 73.5133 43.3561 73.55 43.3561 73.59H38.7861V73.06H42.9761L42.6961 73.27C42.6961 72.89 42.6128 72.5533 42.4461 72.26C42.2861 71.96 42.0661 71.7267 41.7861 71.56C41.5061 71.3933 41.1828 71.31 40.8161 71.31C40.4561 71.31 40.1328 71.3933 39.8461 71.56C39.5594 71.7267 39.3361 71.96 39.1761 72.26C39.0161 72.56 38.9361 72.9033 38.9361 73.29V73.4C38.9361 73.8 39.0228 74.1533 39.1961 74.46C39.3761 74.76 39.6228 74.9967 39.9361 75.17C40.2561 75.3367 40.6194 75.42 41.0261 75.42C41.3461 75.42 41.6428 75.3633 41.9161 75.25C42.1961 75.1367 42.4361 74.9633 42.6361 74.73L43.0361 75.19C42.8028 75.47 42.5094 75.6833 42.1561 75.83C41.8094 75.9767 41.4261 76.05 41.0061 76.05ZM41.7061 69.7C41.5928 69.7 41.4928 69.66 41.4061 69.58C41.3194 69.5 41.2761 69.3967 41.2761 69.27C41.2761 69.1433 41.3194 69.04 41.4061 68.96C41.4928 68.88 41.5928 68.84 41.7061 68.84C41.8261 68.84 41.9261 68.88 42.0061 68.96C42.0928 69.04 42.1361 69.1433 42.1361 69.27C42.1361 69.3967 42.0928 69.5 42.0061 69.58C41.9261 69.66 41.8261 69.7 41.7061 69.7ZM39.9261 69.7C39.8061 69.7 39.7028 69.66 39.6161 69.58C39.5361 69.5 39.4961 69.3967 39.4961 69.27C39.4961 69.1433 39.5361 69.04 39.6161 68.96C39.7028 68.88 39.8061 68.84 39.9261 68.84C40.0394 68.84 40.1394 68.88 40.2261 68.96C40.3128 69.04 40.3561 69.1433 40.3561 69.27C40.3561 69.3967 40.3128 69.5 40.2261 69.58C40.1394 69.66 40.0394 69.7 39.9261 69.7ZM48.7877 76L46.6277 73.4L47.2177 73.05L49.6277 76H48.7877ZM44.9377 76V70.75H45.6477V76H44.9377ZM45.4277 73.66V73.05H47.1177V73.66H45.4277ZM47.2777 73.45L46.6177 73.35L48.7077 70.75H49.4777L47.2777 73.45Z" fill="black"/>
<rect width="54" height="54" rx="10" fill="#F2F2FF"/>
<path d="M18.5 21.3333H24.1667" stroke="#687FF8" stroke-width="2" stroke-linecap="round" stroke-linejoin="round"/>
<path d="M39.5134 22.75H35.8273C33.2985 22.75 31.25 24.6526 31.25 27C31.25 29.3474 33.2999 31.25 35.8258 31.25H39.5134C39.6324 31.25 39.6905 31.25 39.7401 31.2472C40.5051 31.2004 41.1142 30.6352 41.1638 29.9254C41.1667 29.8801 41.1667 29.8248 41.1667 29.7157V24.2843C41.1667 24.1752 41.1667 24.1199 41.1638 24.0746C41.1128 23.3648 40.5051 22.7996 39.7401 22.7528C39.6919 22.75 39.6324 22.75 39.5134 22.75Z" stroke="#687FF8" stroke-width="2"/>
<path d="M39.7006 22.75C39.5901 20.098 39.2359 18.4716 38.0898 17.327C36.4309 15.6666 33.7591 15.6666 28.4168 15.6666H24.1668C18.8246 15.6666 16.1527 15.6666 14.4938 17.327C12.8335 18.9859 12.8335 21.6577 12.8335 27C12.8335 32.3422 12.8335 35.014 14.4938 36.673C16.1527 38.3333 18.8246 38.3333 24.1668 38.3333H28.4168C33.7591 38.3333 36.4309 38.3333 38.0898 36.673C39.2359 35.5283 39.5915 33.902 39.7006 31.25" stroke="#687FF8" stroke-width="2"/>
<path d="M35.4873 27H35.5015" stroke="#687FF8" stroke-width="2" stroke-linecap="round" stroke-linejoin="round"/>
</svg>
