<svg width="575" height="326" viewBox="0 0 575 326" fill="none" xmlns="http://www.w3.org/2000/svg">
<path d="M337.11 19.1548H258.744V159.991H337.11V19.1548Z" fill="#FF5F00"/>
<path d="M263.719 89.5835C263.705 76.0181 266.777 62.6272 272.704 50.4248C278.63 38.2225 287.256 27.5287 297.927 19.1531C284.714 8.7695 268.847 2.31253 252.138 0.520203C235.43 -1.27212 218.554 1.6725 203.44 9.01755C188.325 16.3626 175.582 27.8117 166.667 42.0564C157.752 56.301 153.024 72.7666 153.024 89.5711C153.024 106.376 157.752 122.841 166.667 137.086C175.582 151.33 188.325 162.78 203.44 170.125C218.554 177.47 235.43 180.414 252.138 178.622C268.847 176.83 284.714 170.373 297.927 159.989C287.259 151.616 278.636 140.926 272.709 128.728C266.783 116.531 263.709 103.145 263.719 89.5835V89.5835Z" fill="#EB001B"/>
<path d="M442.843 89.5846C442.842 106.39 438.113 122.857 429.197 137.102C420.28 151.347 407.535 162.796 392.419 170.14C377.303 177.484 360.425 180.427 343.716 178.632C327.006 176.837 311.138 170.377 297.927 159.99C308.59 151.61 317.211 140.917 323.139 128.718C329.067 116.52 332.148 103.135 332.148 89.5721C332.148 76.0096 329.067 62.6242 323.139 50.4258C317.211 38.2274 308.59 27.5346 297.927 19.1542C311.138 8.76734 327.006 2.30722 343.716 0.512322C360.425 -1.28258 377.303 1.66015 392.419 9.00415C407.535 16.3482 420.28 27.7971 429.197 42.0422C438.113 56.2874 442.842 72.754 442.843 89.5597V89.5846Z" fill="#F79E1B"/>
<path d="M434.285 145.063V142.177H435.454V141.58H432.493V142.177H433.762V145.063H434.285ZM440.031 145.063V141.58H439.136L438.091 144.067L437.046 141.58H436.25V145.063H436.897V142.45L437.867 144.714H438.539L439.509 142.45V145.087L440.031 145.063Z" fill="#F79E1B"/>
<path d="M153.485 260.175C153.315 273.524 165.382 280.974 174.471 285.404C183.811 289.948 186.948 292.863 186.912 296.926C186.841 303.147 179.462 305.891 172.555 305.998C160.507 306.185 153.502 302.746 147.933 300.143L143.593 320.453C149.18 323.028 159.527 325.274 170.256 325.372C195.44 325.372 211.918 312.94 212.007 293.665C212.105 269.202 178.17 267.848 178.401 256.913C178.482 253.598 181.645 250.06 188.578 249.16C192.009 248.706 201.482 248.358 212.221 253.304L216.436 233.654C210.661 231.551 203.238 229.537 193.997 229.537C170.292 229.537 153.618 242.138 153.485 260.175ZM256.939 231.23C252.341 231.23 248.464 233.912 246.736 238.029L210.759 323.928H235.926L240.934 310.089H271.688L274.593 323.928H296.774L277.418 231.23H256.939ZM260.459 256.272L267.722 291.08H247.832L260.459 256.272ZM122.971 231.23L103.134 323.928H127.115L146.943 231.23H122.971ZM87.4941 231.23L62.5327 294.324L52.4359 240.676C51.2506 234.688 46.572 231.23 41.3766 231.23H0.570343L0 233.921C8.37691 235.739 17.8945 238.671 23.6603 241.808C27.1893 243.724 28.1963 245.399 29.3548 249.953L48.4791 323.928H73.8237L112.678 231.23H87.4941Z" fill="url(#paint0_linear)"/>
<path d="M364.86 323.773C356.076 323.773 347.326 323.773 338.508 323.773C338.508 292.361 338.508 260.949 338.508 229.537C339.049 229.614 339.589 229.731 340.13 229.731C348.17 229.731 356.245 229.731 364.286 229.731C371.651 229.731 377.259 234.578 379.286 242.567C382.732 256.218 386.144 269.829 389.557 283.48C389.928 284.915 390.435 285.613 391.854 285.07C392.057 284.333 392.293 283.558 392.496 282.782C395.874 269.325 399.286 255.907 402.665 242.451C404.658 234.617 410.266 229.769 417.395 229.769C425.436 229.769 433.51 229.769 441.551 229.769C442.092 229.769 442.632 229.769 443.308 229.769C443.308 230.7 443.308 231.398 443.308 232.096C443.308 262.035 443.308 291.934 443.308 321.873C443.308 322.532 443.274 323.153 443.24 323.812C434.558 323.812 425.909 323.812 417.226 323.812C417.159 323.036 417.057 322.299 417.057 321.524C417.057 304.538 417.057 287.591 417.057 270.605C417.057 269.868 417.057 269.093 417.057 268.472C415.436 267.735 415.165 268.782 414.827 269.985C409.996 287.901 405.165 305.856 400.334 323.773C394.016 323.773 387.732 323.773 381.414 323.773C381.381 323.502 381.414 323.269 381.347 322.997C376.549 305.158 371.718 287.358 366.955 269.519C366.583 268.123 365.941 268.084 364.86 268.356C364.86 286.854 364.86 305.314 364.86 323.773Z" fill="#016848"/>
<path d="M491.214 323.773C491.282 322.998 491.383 322.261 491.383 321.485C491.383 306.632 491.383 291.74 491.383 276.888C491.383 276.112 491.383 275.375 491.383 274.522C519.12 274.522 546.655 274.522 574.493 274.522C570.878 284.023 564.594 289.995 556.317 293.757C556.655 294.416 556.959 294.959 557.263 295.541C562.432 304.422 567.601 313.302 572.77 322.183C573.074 322.726 573.345 323.269 573.615 323.812C563.581 323.812 553.581 323.812 543.547 323.812C538.783 314.815 533.986 305.857 529.188 296.898C528.985 296.51 528.512 296.123 528.175 296.123C524.762 296.045 521.35 296.084 517.87 296.084C517.87 305.469 517.87 314.66 517.87 323.812C509.019 323.773 500.1 323.773 491.214 323.773Z" fill="#016848"/>
<path d="M575 268.938C559.189 268.899 543.378 268.938 527.566 268.86C525.1 268.86 522.6 268.628 520.168 268.201C504.458 265.409 491.856 250.556 489.93 232.601C489.829 231.786 489.863 230.933 489.795 229.886C490.471 229.847 491.079 229.77 491.653 229.77C509.931 229.77 528.242 229.731 546.52 229.731C550.912 229.731 555.135 230.739 559.054 233.066C566.993 237.797 572.331 245.01 574.595 255.016C574.662 255.287 574.831 255.52 574.966 255.791C575 260.174 575 264.556 575 268.938Z" fill="#1181E8"/>
<path d="M454.389 323.773C454.423 322.997 454.457 322.222 454.457 321.446C454.457 291.701 454.457 261.996 454.457 232.251C454.457 231.475 454.457 230.739 454.457 229.847C463.207 229.847 471.856 229.847 480.741 229.847C480.741 261.142 480.741 292.477 480.741 323.773C471.957 323.773 463.173 323.773 454.389 323.773Z" fill="#016848"/>
<defs>
<linearGradient id="paint0_linear" x1="136.44" y1="327.295" x2="139.213" y2="228.87" gradientUnits="userSpaceOnUse">
<stop stop-color="#222357"/>
<stop offset="1" stop-color="#254AA5"/>
</linearGradient>
</defs>
</svg>
