<svg width="79" height="105" viewBox="0 0 79 105" fill="none" xmlns="http://www.w3.org/2000/svg">
<path d="M43.8737 26.1053C43.0735 24.7192 44.3035 23.0452 45.8655 23.392L51.9509 24.749C52.2639 24.819 52.5588 24.9537 52.8166 25.1444C53.0744 25.3352 53.2894 25.5779 53.4478 25.8568C53.6061 26.1357 53.7043 26.4446 53.7361 26.7638C53.7678 27.0829 53.7324 27.4052 53.632 27.7098L51.7093 33.5506C51.2119 35.0599 49.1653 35.2706 48.372 33.8964L43.8737 26.1053ZM45.5319 24.888C45.4739 24.8752 45.4135 24.8795 45.358 24.9004C45.3024 24.9213 45.2541 24.9579 45.219 25.0057C45.1838 25.0535 45.1633 25.1105 45.16 25.1698C45.1566 25.2291 45.1706 25.288 45.2001 25.3395L49.6983 33.1306C49.7279 33.1817 49.7717 33.2231 49.8243 33.2499C49.8769 33.2767 49.9361 33.2878 49.9948 33.2817C50.0535 33.2756 50.1092 33.2527 50.1552 33.2158C50.2012 33.1788 50.2356 33.1293 50.2541 33.0733L52.1774 27.2304C52.2108 27.1288 52.2226 27.0214 52.2119 26.915C52.2013 26.8086 52.1685 26.7056 52.1157 26.6127C52.0629 26.5198 51.9912 26.4389 51.9052 26.3754C51.8192 26.3118 51.7209 26.2669 51.6166 26.2437L45.5319 24.888ZM58.7304 20.0178C58.9528 20.403 59.3191 20.6841 59.7487 20.7992C60.1783 20.9144 60.6361 20.8541 61.0213 20.6317C61.4065 20.4093 61.6876 20.043 61.8027 19.6134C61.9178 19.1837 61.8575 18.726 61.6352 18.3408C61.4128 17.9556 61.0465 17.6745 60.6168 17.5594C60.1872 17.4443 59.7294 17.5045 59.3442 17.7269C58.959 17.9493 58.678 18.3156 58.5628 18.7453C58.4477 19.1749 58.508 19.6327 58.7304 20.0178Z" fill="#E5E5FF"/>
<path d="M41.2694 10.6842L41.2633 10.6736L30.57 16.8473C29.1629 17.6597 28.1362 18.9978 27.7156 20.5673C27.2951 22.1367 27.5153 23.8089 28.3277 25.216L31.959 31.5057C30.8171 31.4091 29.6733 31.6691 28.6853 32.2497C28.424 32.4006 28.0757 32.6335 27.7909 32.9978C27.4794 33.3987 27.3056 33.8758 27.2852 34.404C27.2516 35.3076 27.6825 36.2561 28.2323 37.2085L32.3354 44.3152L32.3752 44.3718C32.7958 44.9507 33.3951 45.3753 34.0808 45.58C34.9402 45.8372 35.9299 45.7504 36.9234 45.1768C37.7325 44.7097 38.2972 43.9663 38.6604 43.1128L41.346 47.7644C42.1584 49.1715 43.4965 50.1983 45.0659 50.6188C46.6353 51.0394 48.3075 50.8192 49.7147 50.0068L60.4092 43.8323L60.4031 43.8217C60.5993 43.7173 60.7939 43.6102 60.9889 43.4976C69.0188 38.8616 72.4192 29.2885 69.5701 20.8281C69.9543 20.6908 70.2723 20.4131 70.4603 20.051C70.6482 19.6888 70.6922 19.269 70.5834 18.8757C70.4746 18.4825 70.221 18.145 69.8736 17.9309C69.5262 17.7169 69.1107 17.6423 68.7105 17.722C68.9684 17.4298 69.112 17.0543 69.1149 16.6646C69.1178 16.2749 68.9797 15.8973 68.7262 15.6014C68.4726 15.3055 68.1207 15.1111 67.7352 15.0542C67.3496 14.9973 66.9565 15.0816 66.6283 15.2917C60.8768 7.74659 50.28 5.46778 41.8442 10.3382C41.6506 10.45 41.4592 10.5658 41.2694 10.6842ZM43.3758 12.9909C46.9756 10.9126 51.0458 10.3842 54.8124 11.1984C54.2197 13.3187 54.057 15.5362 54.334 17.7204C54.611 19.9045 55.322 22.0112 56.4252 23.9165C57.5355 25.8448 59.0241 27.5287 60.8016 28.8672C62.5791 30.2057 64.6088 31.1711 66.7688 31.7054C65.5713 35.5648 62.9598 38.8293 59.4573 40.8449C51.9328 45.1892 42.3577 42.7626 37.7876 35.4533C37.6805 35.2475 37.5613 35.0482 37.4306 34.8565C33.0723 27.1791 35.7186 17.4118 43.3758 12.9909ZM34.3763 18.1868C33.1423 20.6019 32.4326 23.2506 32.2937 25.9592L30.9804 23.6844C30.5742 22.9809 30.4641 22.1448 30.6744 21.3601C30.8847 20.5754 31.398 19.9063 32.1016 19.5001L34.3763 18.1868ZM42.6854 43.9581C45.1006 45.1921 47.7492 45.9018 50.4578 46.0407L48.1831 47.3541C47.4795 47.7603 46.6434 47.8703 45.8587 47.6601C45.074 47.4498 44.405 46.9364 43.9988 46.2329L42.6854 43.9581ZM34.8376 36.4915L35.1753 37.0765C35.9457 38.4108 36.1861 39.7523 36.0986 40.7984C36.0062 41.9218 35.5849 42.4143 35.3926 42.5254C35.2935 42.5883 35.183 42.6311 35.0673 42.6512C35.0324 42.6566 34.9966 42.6543 34.9626 42.6445C34.9356 42.6362 34.9103 42.6233 34.8876 42.6065L30.8864 35.6761C30.6597 35.2835 30.519 34.9969 30.4364 34.7864C31.2836 34.3945 32.1853 34.5106 33.0772 34.9772C33.7704 35.3442 34.3722 35.8622 34.8384 36.4929L34.8376 36.4915ZM65.3443 18.8785C67.3296 22.3063 67.9746 26.348 67.1547 30.2234C65.1909 29.74 63.3453 28.8641 61.7292 27.6483C60.113 26.4326 58.7597 24.9022 57.7509 23.1494C56.7485 21.4182 56.1031 19.5038 55.8527 17.5192C55.6023 15.5345 55.752 13.5198 56.2929 11.5939C60.115 12.8034 63.3453 15.4036 65.3443 18.8785Z" fill="#E5E5FF"/>
<path d="M25.4688 78.4375C27.3004 78.4375 29.057 77.7099 30.3522 76.4147C31.6474 75.1195 32.375 73.3629 32.375 71.5312C32.375 69.6996 31.6474 67.943 30.3522 66.6478C29.057 65.3526 27.3004 64.625 25.4688 64.625C23.6371 64.625 21.8805 65.3526 20.5853 66.6478C19.2901 67.943 18.5625 69.6996 18.5625 71.5312C18.5625 73.3629 19.2901 75.1195 20.5853 76.4147C21.8805 77.7099 23.6371 78.4375 25.4688 78.4375ZM29.1047 71.1047C28.5714 71.638 27.848 71.9376 27.0938 71.9376C26.3395 71.9376 25.6161 71.638 25.0828 71.1047C24.5495 70.5714 24.2499 69.848 24.2499 69.0938C24.2499 68.7203 24.3234 68.3505 24.4663 68.0054C24.6093 67.6604 24.8187 67.3469 25.0828 67.0828C25.6161 66.5495 26.3395 66.2499 27.0938 66.2499C27.848 66.2499 28.5714 66.5495 29.1047 67.0828C29.638 67.6161 29.9376 68.3395 29.9376 69.0938C29.9376 69.848 29.638 70.5714 29.1047 71.1047ZM13.2812 78.4375C14.2509 78.4375 15.1809 78.0523 15.8666 77.3666C16.5523 76.6809 16.9375 75.7509 16.9375 74.7812C16.9375 73.8116 16.5523 72.8816 15.8666 72.1959C15.1809 71.5102 14.2509 71.125 13.2812 71.125C12.3116 71.125 11.3816 71.5102 10.6959 72.1959C10.0102 72.8816 9.625 73.8116 9.625 74.7812C9.625 75.7509 10.0102 76.6809 10.6959 77.3666C11.3816 78.0523 12.3116 78.4375 13.2812 78.4375ZM14.5 75.1875C14.069 75.1875 13.6557 75.0163 13.351 74.7115C13.0462 74.4068 12.875 73.9935 12.875 73.5625C12.875 73.1315 13.0462 72.7182 13.351 72.4135C13.6557 72.1087 14.069 71.9375 14.5 71.9375C14.931 71.9375 15.3443 72.1087 15.649 72.4135C15.9538 72.7182 16.125 73.1315 16.125 73.5625C16.125 73.9935 15.9538 74.4068 15.649 74.7115C15.3443 75.0163 14.931 75.1875 14.5 75.1875ZM24.25 82.9062C24.25 84.0914 23.7792 85.2281 22.9411 86.0661C22.1031 86.9042 20.9664 87.375 19.7812 87.375C18.5961 87.375 17.4594 86.9042 16.6214 86.0661C15.7833 85.2281 15.3125 84.0914 15.3125 82.9062C15.3125 81.7211 15.7833 80.5844 16.6214 79.7464C17.4594 78.9083 18.5961 78.4375 19.7812 78.4375C20.9664 78.4375 22.1031 78.9083 22.9411 79.7464C23.7792 80.5844 24.25 81.7211 24.25 82.9062ZM20.5938 83.3125C21.1325 83.3125 21.6491 83.0985 22.0301 82.7176C22.411 82.3366 22.625 81.82 22.625 81.2812C22.625 80.7425 22.411 80.2259 22.0301 79.8449C21.6491 79.464 21.1325 79.25 20.5938 79.25C20.055 79.25 19.5384 79.464 19.1574 79.8449C18.7765 80.2259 18.5625 80.7425 18.5625 81.2812C18.5625 81.82 18.7765 82.3366 19.1574 82.7176C19.5384 83.0985 20.055 83.3125 20.5938 83.3125Z" fill="#E5E5FF"/>
<path d="M63.1695 101.392C62.2002 100.487 61.63 99.2338 61.5845 97.9085C61.539 96.5832 62.0218 95.2941 62.9267 94.3248C63.8316 93.3554 65.0846 92.7853 66.4099 92.7398C67.7352 92.6942 69.0243 93.177 69.9936 94.082C70.9629 94.9869 71.5331 96.2398 71.5786 97.5651C71.6241 98.8904 71.1413 100.18 70.2364 101.149C69.3315 102.118 68.0785 102.688 66.7532 102.734C65.4279 102.779 64.1388 102.297 63.1695 101.392ZM64.8681 95.7147C64.8869 96.2605 65.1216 96.7764 65.5208 97.1491C65.9199 97.5217 66.4508 97.7205 66.9965 97.7018C67.5423 97.683 68.0582 97.4482 68.4308 97.0491C68.6154 96.8514 68.7591 96.6194 68.854 96.3662C68.9488 96.113 68.9928 95.8436 68.9835 95.5733C68.9648 95.0276 68.73 94.5117 68.3309 94.139C67.9317 93.7664 67.4009 93.5676 66.8551 93.5863C66.3094 93.6051 65.7935 93.8399 65.4208 94.239C65.0482 94.6382 64.8494 95.169 64.8681 95.7147Z" fill="#E5E5FF"/>
<path d="M5.64728 20.4545C6.34707 20.0746 6.86726 19.4322 7.0934 18.6686C7.31954 17.9051 7.23312 17.0831 6.85314 16.3833C6.47317 15.6835 5.83076 15.1633 5.06725 14.9371C4.30374 14.711 3.48167 14.7974 2.78187 15.1774C2.08208 15.5574 1.5619 16.1998 1.33576 16.9633C1.10961 17.7268 1.19604 18.5489 1.57601 19.2487C1.95599 19.9485 2.5984 20.4686 3.36191 20.6948C4.12542 20.9209 4.94749 20.8345 5.64728 20.4545ZM5.51521 16.8987C5.42209 17.2131 5.20789 17.4777 4.91972 17.6341C4.63156 17.7906 4.29304 17.8262 3.97864 17.7331C3.66424 17.6399 3.3997 17.4257 3.24323 17.1376C3.16576 16.9949 3.11714 16.8383 3.10017 16.6769C3.08319 16.5154 3.09819 16.3522 3.1443 16.1965C3.23742 15.8821 3.45163 15.6175 3.73979 15.4611C4.02795 15.3046 4.36647 15.269 4.68088 15.3621C4.99528 15.4553 5.25981 15.6695 5.41628 15.9576C5.57275 16.2458 5.60834 16.5843 5.51521 16.8987Z" fill="#E5E5FF"/>
</svg>
