<svg width="54" height="78" viewBox="0 0 54 78" fill="none" xmlns="http://www.w3.org/2000/svg">
<path d="M6.14 76V69H8.76C9.35333 69 9.86333 69.0967 10.29 69.29C10.7167 69.4767 11.0433 69.75 11.27 70.11C11.5033 70.4633 11.62 70.8933 11.62 71.4C11.62 71.8933 11.5033 72.32 11.27 72.68C11.0433 73.0333 10.7167 73.3067 10.29 73.5C9.86333 73.6933 9.35333 73.79 8.76 73.79H6.55L6.88 73.44V76H6.14ZM6.88 73.5L6.55 73.14H8.74C9.44 73.14 9.97 72.99 10.33 72.69C10.6967 72.3833 10.88 71.9533 10.88 71.4C10.88 70.84 10.6967 70.4067 10.33 70.1C9.97 69.7933 9.44 69.64 8.74 69.64H6.55L6.88 69.29V73.5ZM15.2708 76.05C14.7241 76.05 14.2441 75.9367 13.8308 75.71C13.4174 75.4767 13.0941 75.16 12.8608 74.76C12.6274 74.3533 12.5108 73.89 12.5108 73.37C12.5108 72.85 12.6208 72.39 12.8408 71.99C13.0674 71.59 13.3741 71.2767 13.7608 71.05C14.1541 70.8167 14.5941 70.7 15.0808 70.7C15.5741 70.7 16.0108 70.8133 16.3908 71.04C16.7774 71.26 17.0808 71.5733 17.3008 71.98C17.5208 72.38 17.6308 72.8433 17.6308 73.37C17.6308 73.4033 17.6274 73.44 17.6208 73.48C17.6208 73.5133 17.6208 73.55 17.6208 73.59H13.0508V73.06H17.2408L16.9608 73.27C16.9608 72.89 16.8774 72.5533 16.7108 72.26C16.5508 71.96 16.3308 71.7267 16.0508 71.56C15.7708 71.3933 15.4474 71.31 15.0808 71.31C14.7208 71.31 14.3974 71.3933 14.1108 71.56C13.8241 71.7267 13.6008 71.96 13.4408 72.26C13.2808 72.56 13.2008 72.9033 13.2008 73.29V73.4C13.2008 73.8 13.2874 74.1533 13.4608 74.46C13.6408 74.76 13.8874 74.9967 14.2008 75.17C14.5208 75.3367 14.8841 75.42 15.2908 75.42C15.6108 75.42 15.9074 75.3633 16.1808 75.25C16.4608 75.1367 16.7008 74.9633 16.9008 74.73L17.3008 75.19C17.0674 75.47 16.7741 75.6833 16.4208 75.83C16.0741 75.9767 15.6908 76.05 15.2708 76.05ZM20.7359 76.05C20.2426 76.05 19.8626 75.9167 19.5959 75.65C19.3293 75.3833 19.1959 75.0067 19.1959 74.52V69.59H19.9059V74.48C19.9059 74.7867 19.9826 75.0233 20.1359 75.19C20.2959 75.3567 20.5226 75.44 20.8159 75.44C21.1293 75.44 21.3893 75.35 21.5959 75.17L21.8459 75.68C21.7059 75.8067 21.5359 75.9 21.3359 75.96C21.1426 76.02 20.9426 76.05 20.7359 76.05ZM18.2559 71.34V70.75H21.5059V71.34H18.2559ZM27.1656 76.05C26.7323 76.05 26.3223 75.99 25.9356 75.87C25.549 75.7433 25.2456 75.5867 25.0256 75.4L25.3456 74.84C25.559 75 25.8323 75.14 26.1656 75.26C26.499 75.3733 26.849 75.43 27.2156 75.43C27.7156 75.43 28.0756 75.3533 28.2956 75.2C28.5156 75.04 28.6256 74.83 28.6256 74.57C28.6256 74.3767 28.5623 74.2267 28.4356 74.12C28.3156 74.0067 28.1556 73.9233 27.9556 73.87C27.7556 73.81 27.5323 73.76 27.2856 73.72C27.039 73.68 26.7923 73.6333 26.5456 73.58C26.3056 73.5267 26.0856 73.45 25.8856 73.35C25.6856 73.2433 25.5223 73.1 25.3956 72.92C25.2756 72.74 25.2156 72.5 25.2156 72.2C25.2156 71.9133 25.2956 71.6567 25.4556 71.43C25.6156 71.2033 25.849 71.0267 26.1556 70.9C26.469 70.7667 26.849 70.7 27.2956 70.7C27.6356 70.7 27.9756 70.7467 28.3156 70.84C28.6556 70.9267 28.9356 71.0433 29.1556 71.19L28.8456 71.76C28.6123 71.6 28.3623 71.4867 28.0956 71.42C27.829 71.3467 27.5623 71.31 27.2956 71.31C26.8223 71.31 26.4723 71.3933 26.2456 71.56C26.0256 71.72 25.9156 71.9267 25.9156 72.18C25.9156 72.38 25.9756 72.5367 26.0956 72.65C26.2223 72.7633 26.3856 72.8533 26.5856 72.92C26.7923 72.98 27.0156 73.03 27.2556 73.07C27.5023 73.11 27.7456 73.16 27.9856 73.22C28.2323 73.2733 28.4556 73.35 28.6556 73.45C28.8623 73.5433 29.0256 73.68 29.1456 73.86C29.2723 74.0333 29.3356 74.2633 29.3356 74.55C29.3356 74.8567 29.249 75.1233 29.0756 75.35C28.909 75.57 28.6623 75.7433 28.3356 75.87C28.0156 75.99 27.6256 76.05 27.1656 76.05ZM33.3184 70.7C33.7451 70.7 34.1184 70.7833 34.4384 70.95C34.7651 71.11 35.0184 71.3567 35.1984 71.69C35.3851 72.0233 35.4784 72.4433 35.4784 72.95V76H34.7684V73.02C34.7684 72.4667 34.6284 72.05 34.3484 71.77C34.0751 71.4833 33.6884 71.34 33.1884 71.34C32.8151 71.34 32.4884 71.4167 32.2084 71.57C31.9351 71.7167 31.7218 71.9333 31.5684 72.22C31.4218 72.5 31.3484 72.84 31.3484 73.24V76H30.6384V68.58H31.3484V72.19L31.2084 71.92C31.3751 71.54 31.6418 71.2433 32.0084 71.03C32.3751 70.81 32.8118 70.7 33.3184 70.7ZM39.5363 76.05C39.0296 76.05 38.5729 75.9367 38.1663 75.71C37.7663 75.4767 37.4496 75.16 37.2163 74.76C36.9829 74.3533 36.8663 73.89 36.8663 73.37C36.8663 72.8433 36.9829 72.38 37.2163 71.98C37.4496 71.58 37.7663 71.2667 38.1663 71.04C38.5663 70.8133 39.0229 70.7 39.5363 70.7C40.0563 70.7 40.5163 70.8133 40.9163 71.04C41.3229 71.2667 41.6396 71.58 41.8663 71.98C42.0996 72.38 42.2163 72.8433 42.2163 73.37C42.2163 73.89 42.0996 74.3533 41.8663 74.76C41.6396 75.16 41.3229 75.4767 40.9163 75.71C40.5096 75.9367 40.0496 76.05 39.5363 76.05ZM39.5363 75.42C39.9163 75.42 40.2529 75.3367 40.5463 75.17C40.8396 74.9967 41.0696 74.7567 41.2363 74.45C41.4096 74.1367 41.4963 73.7767 41.4963 73.37C41.4963 72.9567 41.4096 72.5967 41.2363 72.29C41.0696 71.9833 40.8396 71.7467 40.5463 71.58C40.2529 71.4067 39.9196 71.32 39.5463 71.32C39.1729 71.32 38.8396 71.4067 38.5463 71.58C38.2529 71.7467 38.0196 71.9833 37.8463 72.29C37.6729 72.5967 37.5863 72.9567 37.5863 73.37C37.5863 73.7767 37.6729 74.1367 37.8463 74.45C38.0196 74.7567 38.2529 74.9967 38.5463 75.17C38.8396 75.3367 39.1696 75.42 39.5363 75.42ZM46.3758 76.05C45.9224 76.05 45.5124 75.9467 45.1458 75.74C44.7791 75.5267 44.4858 75.2233 44.2658 74.83C44.0524 74.43 43.9458 73.9433 43.9458 73.37C43.9458 72.7967 44.0524 72.3133 44.2658 71.92C44.4791 71.52 44.7691 71.2167 45.1358 71.01C45.5024 70.8033 45.9158 70.7 46.3758 70.7C46.8758 70.7 47.3224 70.8133 47.7158 71.04C48.1158 71.26 48.4291 71.5733 48.6558 71.98C48.8824 72.38 48.9958 72.8433 48.9958 73.37C48.9958 73.9033 48.8824 74.37 48.6558 74.77C48.4291 75.17 48.1158 75.4833 47.7158 75.71C47.3224 75.9367 46.8758 76.05 46.3758 76.05ZM43.6658 77.94V70.75H44.3458V72.33L44.2758 73.38L44.3758 74.44V77.94H43.6658ZM46.3258 75.42C46.6991 75.42 47.0324 75.3367 47.3258 75.17C47.6191 74.9967 47.8524 74.7567 48.0258 74.45C48.1991 74.1367 48.2858 73.7767 48.2858 73.37C48.2858 72.9633 48.1991 72.6067 48.0258 72.3C47.8524 71.9933 47.6191 71.7533 47.3258 71.58C47.0324 71.4067 46.6991 71.32 46.3258 71.32C45.9524 71.32 45.6158 71.4067 45.3158 71.58C45.0224 71.7533 44.7891 71.9933 44.6158 72.3C44.4491 72.6067 44.3658 72.9633 44.3658 73.37C44.3658 73.7767 44.4491 74.1367 44.6158 74.45C44.7891 74.7567 45.0224 74.9967 45.3158 75.17C45.6158 75.3367 45.9524 75.42 46.3258 75.42Z" fill="black"/>
<rect width="54" height="54" rx="10" fill="#EDFBFF"/>
<path d="M14.9585 25.5834V29.8334C14.9585 35.1756 14.9585 37.8475 16.6188 39.5064C18.2777 41.1667 20.9496 41.1667 26.2918 41.1667H27.7085C33.0507 41.1667 35.7226 41.1667 37.3815 39.5064C39.0418 37.8475 39.0418 35.1756 39.0418 29.8334V25.5834" stroke="#12AAFF" stroke-width="2"/>
<path d="M23.4586 12.8334H30.5419L31.4656 22.0658C31.5264 22.6888 31.4563 23.3176 31.2595 23.9119C31.0628 24.5061 30.7439 25.0527 30.3234 25.5163C29.9028 25.9799 29.3899 26.3504 28.8176 26.604C28.2453 26.8575 27.6262 26.9885 27.0003 26.9885C26.3743 26.9885 25.7553 26.8575 25.1829 26.604C24.6106 26.3504 24.0977 25.9799 23.6771 25.5163C23.2566 25.0527 22.9377 24.5061 22.741 23.9119C22.5443 23.3176 22.4741 22.6888 22.5349 22.0658L23.4586 12.8334Z" stroke="#12AAFF" stroke-width="2"/>
<path d="M14.7177 17.5806C14.9699 16.3198 15.0959 15.6894 15.3524 15.178C15.6195 14.6453 15.9957 14.1749 16.4565 13.7971C16.9173 13.4193 17.4524 13.1426 18.027 12.985C18.5795 12.8334 19.2227 12.8334 20.509 12.8334H23.4585L22.4314 23.0971C22.3772 23.6845 22.2037 24.2547 21.9215 24.7727C21.6393 25.2907 21.2544 25.7456 20.7902 26.1097C20.3261 26.4738 19.7925 26.7393 19.2222 26.89C18.6519 27.0406 18.0568 27.0734 17.4734 26.9861C16.89 26.8988 16.3306 26.6934 15.8293 26.3824C15.3281 26.0714 14.8956 25.6614 14.5583 25.1774C14.221 24.6935 13.9861 24.1458 13.8678 23.5679C13.7495 22.99 13.7505 22.394 13.8705 21.8165L14.7177 17.5806ZM39.2827 17.5806C39.0305 16.3198 38.9044 15.6894 38.648 15.178C38.3809 14.6453 38.0047 14.1749 37.5439 13.7971C37.0831 13.4193 36.548 13.1426 35.9734 12.985C35.4209 12.8334 34.7777 12.8334 33.4914 12.8334H30.5419L31.5689 23.0971C31.6231 23.6845 31.7967 24.2547 32.0789 24.7727C32.3611 25.2907 32.746 25.7456 33.2102 26.1097C33.6743 26.4738 34.2079 26.7393 34.7782 26.89C35.3485 27.0406 35.9436 27.0734 36.527 26.9861C37.1104 26.8988 37.6698 26.6934 38.1711 26.3824C38.6723 26.0714 39.1048 25.6614 39.4421 25.1774C39.7794 24.6935 40.0143 24.1458 40.1326 23.5679C40.2509 22.99 40.2499 22.394 40.1299 21.8165L39.2827 17.5806Z" stroke="#12AAFF" stroke-width="2"/>
<path d="M23.4585 40.4584V36.2084C23.4585 34.8838 23.4585 34.2222 23.7432 33.7292C23.9297 33.4062 24.198 33.138 24.521 32.9515C25.014 32.6667 25.6756 32.6667 27.0002 32.6667C28.3247 32.6667 28.9863 32.6667 29.4793 32.9515C29.8023 33.138 30.0706 33.4062 30.2571 33.7292C30.5418 34.2222 30.5418 34.8838 30.5418 36.2084V40.4584" stroke="#12AAFF" stroke-width="2" stroke-linecap="round"/>
</svg>
