<svg width="55" height="78" viewBox="0 0 55 78" fill="none" xmlns="http://www.w3.org/2000/svg">
<rect x="1" width="54" height="54" rx="10" fill="#FFEEFF"/>
<path d="M1.18 76V69H7.07V76H6.34V69.44L6.53 69.64H1.72L1.91 69.44V76H1.18ZM11.972 76.05C11.5186 76.05 11.1086 75.9467 10.742 75.74C10.3753 75.5267 10.082 75.2233 9.86195 74.83C9.64862 74.43 9.54195 73.9433 9.54195 73.37C9.54195 72.7967 9.64862 72.3133 9.86195 71.92C10.0753 71.52 10.3653 71.2167 10.732 71.01C11.0986 70.8033 11.512 70.7 11.972 70.7C12.472 70.7 12.9186 70.8133 13.312 71.04C13.712 71.26 14.0253 71.5733 14.252 71.98C14.4786 72.38 14.592 72.8433 14.592 73.37C14.592 73.9033 14.4786 74.37 14.252 74.77C14.0253 75.17 13.712 75.4833 13.312 75.71C12.9186 75.9367 12.472 76.05 11.972 76.05ZM9.26195 77.94V70.75H9.94195V72.33L9.87195 73.38L9.97195 74.44V77.94H9.26195ZM11.922 75.42C12.2953 75.42 12.6286 75.3367 12.922 75.17C13.2153 74.9967 13.4486 74.7567 13.622 74.45C13.7953 74.1367 13.882 73.7767 13.882 73.37C13.882 72.9633 13.7953 72.6067 13.622 72.3C13.4486 71.9933 13.2153 71.7533 12.922 71.58C12.6286 71.4067 12.2953 71.32 11.922 71.32C11.5486 71.32 11.212 71.4067 10.912 71.58C10.6186 71.7533 10.3853 71.9933 10.212 72.3C10.0453 72.6067 9.96195 72.9633 9.96195 73.37C9.96195 73.7767 10.0453 74.1367 10.212 74.45C10.3853 74.7567 10.6186 74.9967 10.912 75.17C11.212 75.3367 11.5486 75.42 11.922 75.42ZM18.2774 76.05C17.7708 76.05 17.3141 75.9367 16.9074 75.71C16.5074 75.4767 16.1908 75.16 15.9574 74.76C15.7241 74.3533 15.6074 73.89 15.6074 73.37C15.6074 72.8433 15.7241 72.38 15.9574 71.98C16.1908 71.58 16.5074 71.2667 16.9074 71.04C17.3074 70.8133 17.7641 70.7 18.2774 70.7C18.7974 70.7 19.2574 70.8133 19.6574 71.04C20.0641 71.2667 20.3808 71.58 20.6074 71.98C20.8408 72.38 20.9574 72.8433 20.9574 73.37C20.9574 73.89 20.8408 74.3533 20.6074 74.76C20.3808 75.16 20.0641 75.4767 19.6574 75.71C19.2508 75.9367 18.7908 76.05 18.2774 76.05ZM18.2774 75.42C18.6574 75.42 18.9941 75.3367 19.2874 75.17C19.5808 74.9967 19.8108 74.7567 19.9774 74.45C20.1508 74.1367 20.2374 73.7767 20.2374 73.37C20.2374 72.9567 20.1508 72.5967 19.9774 72.29C19.8108 71.9833 19.5808 71.7467 19.2874 71.58C18.9941 71.4067 18.6608 71.32 18.2874 71.32C17.9141 71.32 17.5808 71.4067 17.2874 71.58C16.9941 71.7467 16.7608 71.9833 16.5874 72.29C16.4141 72.5967 16.3274 72.9567 16.3274 73.37C16.3274 73.7767 16.4141 74.1367 16.5874 74.45C16.7608 74.7567 16.9941 74.9967 17.2874 75.17C17.5808 75.3367 17.9108 75.42 18.2774 75.42ZM22.4748 76V70.75H23.1948L25.5748 74.78H25.2748L27.6948 70.75H28.3548V76H27.7048V71.56L27.8348 71.62L25.5748 75.36H25.2548L22.9748 71.58L23.1248 71.55V76H22.4748ZM32.5352 76.05C32.0286 76.05 31.5719 75.9367 31.1652 75.71C30.7652 75.4767 30.4486 75.16 30.2152 74.76C29.9819 74.3533 29.8652 73.89 29.8652 73.37C29.8652 72.8433 29.9819 72.38 30.2152 71.98C30.4486 71.58 30.7652 71.2667 31.1652 71.04C31.5652 70.8133 32.0219 70.7 32.5352 70.7C33.0552 70.7 33.5152 70.8133 33.9152 71.04C34.3219 71.2667 34.6386 71.58 34.8652 71.98C35.0986 72.38 35.2152 72.8433 35.2152 73.37C35.2152 73.89 35.0986 74.3533 34.8652 74.76C34.6386 75.16 34.3219 75.4767 33.9152 75.71C33.5086 75.9367 33.0486 76.05 32.5352 76.05ZM32.5352 75.42C32.9152 75.42 33.2519 75.3367 33.5452 75.17C33.8386 74.9967 34.0686 74.7567 34.2352 74.45C34.4086 74.1367 34.4952 73.7767 34.4952 73.37C34.4952 72.9567 34.4086 72.5967 34.2352 72.29C34.0686 71.9833 33.8386 71.7467 33.5452 71.58C33.2519 71.4067 32.9186 71.32 32.5452 71.32C32.1719 71.32 31.8386 71.4067 31.5452 71.58C31.2519 71.7467 31.0186 71.9833 30.8452 72.29C30.6719 72.5967 30.5852 72.9567 30.5852 73.37C30.5852 73.7767 30.6719 74.1367 30.8452 74.45C31.0186 74.7567 31.2519 74.9967 31.5452 75.17C31.8386 75.3367 32.1686 75.42 32.5352 75.42ZM40.5827 76L38.4227 73.4L39.0127 73.05L41.4227 76H40.5827ZM36.7327 76V70.75H37.4427V76H36.7327ZM37.2227 73.66V73.05H38.9127V73.66H37.2227ZM39.0727 73.45L38.4127 73.35L40.5027 70.75H41.2727L39.0727 73.45ZM44.5177 76.05C44.011 76.05 43.5543 75.9367 43.1477 75.71C42.7477 75.4767 42.431 75.16 42.1977 74.76C41.9643 74.3533 41.8477 73.89 41.8477 73.37C41.8477 72.8433 41.9643 72.38 42.1977 71.98C42.431 71.58 42.7477 71.2667 43.1477 71.04C43.5477 70.8133 44.0043 70.7 44.5177 70.7C45.0377 70.7 45.4977 70.8133 45.8977 71.04C46.3043 71.2667 46.621 71.58 46.8477 71.98C47.081 72.38 47.1977 72.8433 47.1977 73.37C47.1977 73.89 47.081 74.3533 46.8477 74.76C46.621 75.16 46.3043 75.4767 45.8977 75.71C45.491 75.9367 45.031 76.05 44.5177 76.05ZM44.5177 75.42C44.8977 75.42 45.2343 75.3367 45.5277 75.17C45.821 74.9967 46.051 74.7567 46.2177 74.45C46.391 74.1367 46.4777 73.7767 46.4777 73.37C46.4777 72.9567 46.391 72.5967 46.2177 72.29C46.051 71.9833 45.821 71.7467 45.5277 71.58C45.2343 71.4067 44.901 71.32 44.5277 71.32C44.1543 71.32 43.821 71.4067 43.5277 71.58C43.2343 71.7467 43.001 71.9833 42.8277 72.29C42.6543 72.5967 42.5677 72.9567 42.5677 73.37C42.5677 73.7767 42.6543 74.1367 42.8277 74.45C43.001 74.7567 43.2343 74.9967 43.5277 75.17C43.821 75.3367 44.151 75.42 44.5177 75.42ZM52.2858 75.66V71.37H49.7558L49.6958 72.54C49.6824 72.8933 49.6591 73.24 49.6258 73.58C49.5991 73.92 49.5491 74.2333 49.4758 74.52C49.4091 74.8 49.3124 75.03 49.1858 75.21C49.0591 75.3833 48.8958 75.4833 48.6958 75.51L47.9858 75.38C48.1924 75.3867 48.3624 75.3133 48.4958 75.16C48.6291 75 48.7324 74.7833 48.8058 74.51C48.8791 74.2367 48.9324 73.9267 48.9658 73.58C48.9991 73.2267 49.0258 72.8667 49.0458 72.5L49.1158 70.75H52.9958V75.66H52.2858ZM47.7658 77.27V75.38H53.8158V77.27H53.1458V76H48.4358V77.27H47.7658Z" fill="black"/>
<path d="M28 16.9063V20.625M28 16.9063C28 16.1708 28.2181 15.4518 28.6267 14.8402C29.0353 14.2287 29.6161 13.752 30.2956 13.4706C30.9752 13.1891 31.7229 13.1155 32.4442 13.259C33.1656 13.4024 33.8282 13.7566 34.3483 14.2767C34.8684 14.7968 35.2226 15.4594 35.366 16.1808C35.5095 16.9021 35.4359 17.6498 35.1544 18.3294C34.873 19.0089 34.3963 19.5897 33.7848 19.9983C33.1732 20.4069 32.4543 20.625 31.7188 20.625H28M28 16.9063C28 16.1708 27.7819 15.4518 27.3733 14.8402C26.9647 14.2287 26.3839 13.752 25.7044 13.4706C25.0248 13.1891 24.2771 13.1155 23.5558 13.259C22.8344 13.4024 22.1718 13.7566 21.6517 14.2767C21.1316 14.7968 20.7774 15.4594 20.634 16.1808C20.4905 16.9021 20.5641 17.6498 20.8456 18.3294C21.127 19.0089 21.6037 19.5897 22.2152 19.9983C22.8268 20.4069 23.5458 20.625 24.2813 20.625H28" stroke="#FF69E7" stroke-width="2.0625" stroke-miterlimit="10" stroke-linecap="round"/>
<path d="M38.625 20.625H17.375C16.2014 20.625 15.25 21.5764 15.25 22.75V25.9375C15.25 27.1111 16.2014 28.0625 17.375 28.0625H38.625C39.7986 28.0625 40.75 27.1111 40.75 25.9375V22.75C40.75 21.5764 39.7986 20.625 38.625 20.625Z" stroke="#FF69E7" stroke-width="2.0625" stroke-linecap="round" stroke-linejoin="round"/>
<path d="M38.625 28.0625V37.625C38.625 38.4704 38.2892 39.2811 37.6914 39.8789C37.0936 40.4767 36.2829 40.8125 35.4375 40.8125H20.5625C19.7171 40.8125 18.9064 40.4767 18.3086 39.8789C17.7108 39.2811 17.375 38.4704 17.375 37.625V28.0625M28 20.625V40.8125" stroke="#FF69E7" stroke-width="2.0625" stroke-linecap="round" stroke-linejoin="round"/>
</svg>
