<svg width="182" height="75" viewBox="0 0 182 75" fill="none" xmlns="http://www.w3.org/2000/svg">
<g clip-path="url(#clip0_436_18)">
<path d="M147.677 22.0408L157.003 15.846C157.274 15.6672 157.589 15.5673 157.913 15.5575C158.237 15.5477 158.558 15.6284 158.839 15.7906C159.12 15.9528 159.35 16.19 159.504 16.4758C159.657 16.7615 159.728 17.0843 159.709 17.4081L159.007 28.5824L167.839 35.5493C168.095 35.7484 168.289 36.0154 168.401 36.3199C168.512 36.6243 168.535 36.9539 168.468 37.2711C168.401 37.5883 168.246 37.8802 168.021 38.1135C167.796 38.3469 167.51 38.5123 167.196 38.5909L156.321 41.3197L152.457 51.8147C151.96 53.1614 150.127 53.3467 149.353 52.1299L143.335 42.6441L132.109 42.1738C130.669 42.1148 129.914 40.4328 130.833 39.3279L137.99 30.7342L134.915 19.9516C134.827 19.6403 134.828 19.3106 134.918 18.9999C135.008 18.6892 135.183 18.41 135.424 18.1939C135.665 17.9778 135.961 17.8336 136.28 17.7777C136.598 17.7217 136.926 17.7563 137.226 17.8774L147.677 22.0408Z" stroke="#FFE400" stroke-width="1.5" stroke-linecap="round" stroke-linejoin="round"/>
</g>
<g clip-path="url(#clip1_436_18)">
<path d="M8.75233 9.52434L6.31936 7.90832C6.24876 7.86166 6.16656 7.8356 6.08197 7.83304C5.99739 7.83049 5.91376 7.85155 5.84047 7.89386C5.76718 7.93617 5.70713 7.99806 5.66705 8.0726C5.62697 8.14713 5.60845 8.23135 5.61355 8.31582L5.79659 11.2308L3.49265 13.0483C3.42591 13.1002 3.37513 13.1699 3.34609 13.2493C3.31704 13.3287 3.31092 13.4147 3.3284 13.4975C3.34589 13.5802 3.38628 13.6564 3.44498 13.7172C3.50367 13.7781 3.5783 13.8213 3.66034 13.8418L6.49736 14.5536L7.50531 17.2914C7.63482 17.6428 8.11307 17.6911 8.31489 17.3737L9.88496 14.8991L12.8135 14.7764C13.1891 14.761 13.3861 14.3223 13.1464 14.034L11.2793 11.7922L12.0813 8.97933C12.1043 8.89814 12.1041 8.81213 12.0806 8.73108C12.0572 8.65002 12.0114 8.57717 11.9487 8.52081C11.8859 8.46444 11.8085 8.42682 11.7254 8.41223C11.6423 8.39763 11.5568 8.40664 11.4785 8.43824L8.75233 9.52434Z" stroke="#FFE400" stroke-opacity="0.4" stroke-width="1.5" stroke-linecap="round" stroke-linejoin="round"/>
</g>
<g clip-path="url(#clip2_436_18)">
<path d="M93.3729 65.8863L92.8836 63.0068C92.8692 62.9235 92.8319 62.8457 92.7758 62.7823C92.7197 62.719 92.6471 62.6725 92.566 62.6481C92.485 62.6236 92.3988 62.6223 92.317 62.6442C92.2353 62.666 92.1612 62.7102 92.1032 62.7718L90.1049 64.902L87.2026 64.4685C87.119 64.4555 87.0335 64.4662 86.9558 64.4994C86.878 64.5327 86.8112 64.5871 86.7629 64.6565C86.7146 64.726 86.6868 64.8075 86.6826 64.892C86.6785 64.9765 86.6982 65.0604 86.7394 65.1342L88.1642 67.6887L86.8601 70.2985C86.6929 70.6335 86.9853 71.015 87.3548 70.9446L90.2331 70.3933L92.3286 72.4427C92.5971 72.7059 93.0517 72.5488 93.0975 72.1767L93.4517 69.2808L96.0504 67.9382C96.1253 67.8994 96.1878 67.8403 96.2307 67.7677C96.2737 67.6951 96.2955 67.6118 96.2935 67.5275C96.2916 67.4431 96.266 67.361 96.2197 67.2905C96.1734 67.2199 96.1082 67.1638 96.0316 67.1284L93.3729 65.8863Z" stroke="#FFE400" stroke-opacity="0.4" stroke-width="1.5" stroke-linecap="round" stroke-linejoin="round"/>
</g>
<defs>
<clipPath id="clip0_436_18">
<rect width="46" height="46" fill="white" transform="translate(141.316 0.140747) rotate(30)"/>
</clipPath>
<clipPath id="clip1_436_18">
<rect width="12" height="12" fill="white" transform="matrix(-0.866025 0.5 0.5 0.866025 10.4116 3.81128)"/>
</clipPath>
<clipPath id="clip2_436_18">
<rect width="12" height="12" fill="white" transform="matrix(-0.957507 -0.288411 -0.288411 0.957507 98.6716 63.1816)"/>
</clipPath>
</defs>
</svg>
