<svg width="34" height="34" viewBox="0 0 34 34" fill="none" xmlns="http://www.w3.org/2000/svg">
<g filter="url(#filter0_d_412_120)">
<circle cx="17" cy="17" r="13" fill="#F6F6FF"/>
</g>
<g clip-path="url(#clip0_412_120)">
<path d="M13 17V14.37C13.0078 13.8531 13.1176 13.3427 13.3229 12.8682C13.5283 12.3937 13.8253 11.9644 14.1969 11.6049C14.5685 11.2454 15.0073 10.9628 15.4884 10.7732C15.9694 10.5836 16.4831 10.4908 17 10.5C17.5169 10.4908 18.0306 10.5836 18.5116 10.7732C18.9927 10.9628 19.4315 11.2454 19.8031 11.6049C20.1747 11.9644 20.4717 12.3937 20.6771 12.8682C20.8824 13.3427 20.9922 13.8531 21 14.37V17M19 22.25C19.5304 22.25 20.0391 22.0393 20.4142 21.6642C20.7893 21.2892 21 20.7805 21 20.25V18M19 22.25C19 22.5815 18.8683 22.8995 18.6339 23.1339C18.3995 23.3683 18.0815 23.5 17.75 23.5H16.25C15.9185 23.5 15.6005 23.3683 15.3661 23.1339C15.1317 22.8995 15 22.5815 15 22.25C15 21.9185 15.1317 21.6006 15.3661 21.3661C15.6005 21.1317 15.9185 21 16.25 21H17.75C18.0815 21 18.3995 21.1317 18.6339 21.3661C18.8683 21.6006 19 21.9185 19 22.25ZM11.5 15.5H12.5C12.6326 15.5 12.7598 15.5527 12.8536 15.6465C12.9473 15.7402 13 15.8674 13 16V19C13 19.1326 12.9473 19.2598 12.8536 19.3536C12.7598 19.4473 12.6326 19.5 12.5 19.5H11.5C11.2348 19.5 10.9804 19.3947 10.7929 19.2071C10.6054 19.0196 10.5 18.7652 10.5 18.5V16.5C10.5 16.2348 10.6054 15.9805 10.7929 15.7929C10.9804 15.6054 11.2348 15.5 11.5 15.5ZM22.5 19.5H21.5C21.3674 19.5 21.2402 19.4473 21.1464 19.3536C21.0527 19.2598 21 19.1326 21 19V16C21 15.8674 21.0527 15.7402 21.1464 15.6465C21.2402 15.5527 21.3674 15.5 21.5 15.5H22.5C22.7652 15.5 23.0196 15.6054 23.2071 15.7929C23.3946 15.9805 23.5 16.2348 23.5 16.5V18.5C23.5 18.7652 23.3946 19.0196 23.2071 19.2071C23.0196 19.3947 22.7652 19.5 22.5 19.5Z" stroke="#687FF8" stroke-linecap="round" stroke-linejoin="round"/>
</g>
<defs>
<filter id="filter0_d_412_120" x="0" y="0" width="34" height="34" filterUnits="userSpaceOnUse" color-interpolation-filters="sRGB">
<feFlood flood-opacity="0" result="BackgroundImageFix"/>
<feColorMatrix in="SourceAlpha" type="matrix" values="0 0 0 0 0 0 0 0 0 0 0 0 0 0 0 0 0 0 127 0" result="hardAlpha"/>
<feOffset/>
<feGaussianBlur stdDeviation="2"/>
<feComposite in2="hardAlpha" operator="out"/>
<feColorMatrix type="matrix" values="0 0 0 0 0 0 0 0 0 0 0 0 0 0 0 0 0 0 0.08 0"/>
<feBlend mode="normal" in2="BackgroundImageFix" result="effect1_dropShadow_412_120"/>
<feBlend mode="normal" in="SourceGraphic" in2="effect1_dropShadow_412_120" result="shape"/>
</filter>
<clipPath id="clip0_412_120">
<rect width="14" height="14" fill="white" transform="translate(10 10)"/>
</clipPath>
</defs>
</svg>
