<svg width="43" height="63" viewBox="0 0 43 63" fill="none" xmlns="http://www.w3.org/2000/svg">
<path d="M15.056 61V55.752L15.216 55.912H13.088V55.4H17.608V55.912H15.488L15.64 55.752V61H15.056ZM20.1216 61.04C19.7163 61.04 19.351 60.9493 19.0256 60.768C18.7056 60.5813 18.4523 60.328 18.2656 60.008C18.079 59.6827 17.9856 59.312 17.9856 58.896C17.9856 58.4747 18.079 58.104 18.2656 57.784C18.4523 57.464 18.7056 57.2133 19.0256 57.032C19.3456 56.8507 19.711 56.76 20.1216 56.76C20.5376 56.76 20.9056 56.8507 21.2256 57.032C21.551 57.2133 21.8043 57.464 21.9856 57.784C22.1723 58.104 22.2656 58.4747 22.2656 58.896C22.2656 59.312 22.1723 59.6827 21.9856 60.008C21.8043 60.328 21.551 60.5813 21.2256 60.768C20.9003 60.9493 20.5323 61.04 20.1216 61.04ZM20.1216 60.536C20.4256 60.536 20.695 60.4693 20.9296 60.336C21.1643 60.1973 21.3483 60.0053 21.4816 59.76C21.6203 59.5093 21.6896 59.2213 21.6896 58.896C21.6896 58.5653 21.6203 58.2773 21.4816 58.032C21.3483 57.7867 21.1643 57.5973 20.9296 57.464C20.695 57.3253 20.4283 57.256 20.1296 57.256C19.831 57.256 19.5643 57.3253 19.3296 57.464C19.095 57.5973 18.9083 57.7867 18.7696 58.032C18.631 58.2773 18.5616 58.5653 18.5616 58.896C18.5616 59.2213 18.631 59.5093 18.7696 59.76C18.9083 60.0053 19.095 60.1973 19.3296 60.336C19.5643 60.4693 19.8283 60.536 20.1216 60.536ZM23.7996 61V56.8H27.5756V61H27.0076V57.144L27.1516 57.296H24.2236L24.3676 57.144V61H23.7996Z" fill="black"/>
<circle cx="21.5" cy="21.5" r="21.5" fill="#FFF9DC"/>
<path d="M18.2709 14.5257C19.5379 12.2537 20.1709 11.1177 21.1179 11.1177C22.0649 11.1177 22.6979 12.2537 23.9649 14.5257L24.2929 15.1137C24.6529 15.7597 24.8329 16.0827 25.1129 16.2957C25.3929 16.5087 25.7429 16.5877 26.4429 16.7457L27.0789 16.8897C29.5389 17.4467 30.7679 17.7247 31.0609 18.6657C31.3529 19.6057 30.5149 20.5867 28.8379 22.5477L28.4039 23.0547C27.9279 23.6117 27.6889 23.8907 27.5819 24.2347C27.4749 24.5797 27.5109 24.9517 27.5829 25.6947L27.6489 26.3717C27.9019 28.9887 28.0289 30.2967 27.2629 30.8777C26.4969 31.4597 25.3449 30.9287 23.0429 29.8687L22.4459 29.5947C21.7919 29.2927 21.4649 29.1427 21.1179 29.1427C20.7709 29.1427 20.4439 29.2927 19.7889 29.5947L19.1939 29.8687C16.8909 30.9287 15.7389 31.4587 14.9739 30.8787C14.2069 30.2967 14.3339 28.9887 14.5869 26.3717L14.6529 25.6957C14.7249 24.9517 14.7609 24.5797 14.6529 24.2357C14.5469 23.8907 14.3079 23.6117 13.8319 23.0557L13.3979 22.5477C11.7209 20.5877 10.8829 19.6067 11.1749 18.6657C11.4679 17.7247 12.6979 17.4457 15.1579 16.8897L15.7939 16.7457C16.4929 16.5877 16.8419 16.5087 17.1229 16.2957C17.4029 16.0827 17.5829 15.7597 17.9429 15.1137L18.2709 14.5257Z" stroke="#FFE600" stroke-width="1.5"/>
</svg>
