<svg width="20" height="20" viewBox="0 0 20 20" fill="none" xmlns="http://www.w3.org/2000/svg">
<path d="M5 6.66663H8.33333" stroke="#687FF8" stroke-width="1.17647" stroke-linecap="round" stroke-linejoin="round"/>
<path d="M17.3608 7.5H15.1925C13.705 7.5 12.5 8.61917 12.5 10C12.5 11.3808 13.7058 12.5 15.1917 12.5H17.3608C17.4308 12.5 17.465 12.5 17.4942 12.4983C17.9442 12.4708 18.3025 12.1383 18.3317 11.7208C18.3333 11.6942 18.3333 11.6617 18.3333 11.5975V8.4025C18.3333 8.33833 18.3333 8.30583 18.3317 8.27917C18.3017 7.86167 17.9442 7.52917 17.4942 7.50167C17.4658 7.5 17.4308 7.5 17.3608 7.5Z" stroke="#687FF8" stroke-width="1.17647"/>
<path d="M17.4707 7.49992C17.4057 5.93992 17.1973 4.98325 16.5232 4.30992C15.5473 3.33325 13.9757 3.33325 10.8332 3.33325H8.33317C5.19067 3.33325 3.619 3.33325 2.64317 4.30992C1.6665 5.28575 1.6665 6.85742 1.6665 9.99992C1.6665 13.1424 1.6665 14.7141 2.64317 15.6899C3.619 16.6666 5.19067 16.6666 8.33317 16.6666H10.8332C13.9757 16.6666 15.5473 16.6666 16.5232 15.6899C17.1973 15.0166 17.4065 14.0599 17.4707 12.4999" stroke="#687FF8" stroke-width="1.17647"/>
<path d="M14.9924 10H15.0008" stroke="#687FF8" stroke-width="1.17647" stroke-linecap="round" stroke-linejoin="round"/>
</svg>
