<?xml version="1.0" standalone="no"?>
<!DOCTYPE svg PUBLIC "-//W3C//DTD SVG 20010904//EN"
 "http://www.w3.org/TR/2001/REC-SVG-20010904/DTD/svg10.dtd">
<svg version="1.0" xmlns="http://www.w3.org/2000/svg"
 width="704.000000pt" height="704.000000pt" viewBox="0 0 704.000000 704.000000"
 preserveAspectRatio="xMidYMid meet">
<metadata>
Created by potrace 1.14, written by Peter Selinger 2001-2017
</metadata>
<g transform="translate(0.000000,704.000000) scale(0.100000,-0.100000)"
fill="#000000" stroke="none">
<path d="M6340 6639 c-17 -30 -47 -79 -66 -109 -19 -30 -39 -64 -44 -75 -13
-26 -33 -59 -41 -65 -3 -3 -20 -32 -38 -65 -18 -33 -39 -67 -47 -76 -8 -8 -14
-18 -14 -21 0 -6 -84 -146 -123 -205 -18 -27 -24 -30 -42 -21 -11 6 -22 11
-25 11 -3 0 -9 1 -15 3 -15 5 -129 38 -135 39 -3 0 -21 4 -40 8 -19 4 -57 9
-84 12 -28 4 -53 8 -56 10 -14 9 -188 18 -345 19 -294 1 -512 -26 -738 -89
-67 -19 -75 -15 -110 48 -12 22 -26 47 -32 56 -5 9 -25 43 -44 76 -19 33 -37
62 -40 65 -3 3 -15 21 -26 40 -44 78 -62 110 -100 175 -22 37 -48 79 -57 93
-10 15 -24 42 -33 61 -21 48 -18 54 -135 -214 -5 -11 -19 -45 -30 -75 -12 -30
-26 -64 -31 -75 -39 -88 -138 -433 -153 -530 -4 -22 -8 -47 -11 -55 -4 -16
-13 -81 -22 -165 -8 -83 -10 -348 -2 -385 4 -19 10 -53 12 -75 10 -77 37 -182
68 -264 20 -55 69 -161 79 -171 3 -3 11 -16 18 -30 36 -70 166 -221 247 -287
86 -70 103 -83 113 -83 6 0 12 -4 14 -8 3 -8 145 -92 155 -92 2 0 28 -11 56
-24 146 -66 320 -110 527 -133 123 -13 443 -6 530 12 14 3 43 8 65 10 22 3 51
7 65 10 14 4 36 8 50 11 69 13 246 70 330 107 109 47 270 137 300 167 3 3 27
23 55 45 65 52 165 154 196 199 13 20 27 36 32 36 4 0 7 4 7 10 0 5 16 34 35
65 75 116 134 276 161 430 19 112 24 338 11 466 -35 318 -166 695 -386 1108
l-29 54 -32 -54z m-1750 -1354 c140 -56 235 -183 279 -371 18 -83 20 -102 8
-112 -19 -15 -188 -79 -227 -86 -19 -3 -46 -8 -60 -11 -40 -8 -132 -8 -174 0
-103 18 -196 85 -258 185 -36 58 -91 180 -81 180 3 0 1 6 -5 13 -6 7 -14 31
-17 52 -6 39 -5 41 37 62 124 63 181 85 252 99 10 2 20 5 22 7 12 12 184 -3
224 -18z m1490 7 c14 -5 27 -9 30 -9 15 1 95 -30 168 -66 55 -27 82 -46 82
-57 0 -30 -39 -139 -76 -216 -55 -110 -165 -213 -246 -229 -12 -3 -34 -7 -48
-10 -58 -12 -168 -5 -240 15 -25 7 -49 13 -55 15 -23 5 -131 50 -155 64 -8 5
-14 14 -13 20 2 5 5 29 7 53 6 53 40 159 69 213 58 106 143 178 252 210 46 14
188 12 225 -3z"/>
<path d="M1757 4604 c-1 -2 -27 -5 -57 -8 -261 -26 -531 -121 -745 -264 -113
-75 -141 -98 -241 -197 -94 -94 -188 -217 -247 -324 -43 -77 -120 -251 -111
-251 2 0 -2 -13 -11 -30 -9 -16 -13 -30 -11 -30 3 0 -1 -18 -9 -40 -8 -22 -14
-43 -14 -45 1 -5 -9 -68 -17 -109 -6 -35 -18 -200 -18 -246 1 -68 13 -198 24
-260 15 -84 17 -91 48 -210 17 -65 65 -195 93 -252 15 -32 24 -58 21 -58 -4 0
-2 -4 3 -8 6 -4 23 -34 40 -67 35 -71 189 -321 259 -420 93 -133 141 -190 266
-315 181 -181 377 -313 575 -387 22 -8 49 -19 60 -23 52 -22 207 -60 305 -76
78 -12 93 -14 200 -20 165 -10 174 -10 187 -1 6 4 14 3 18 -3 3 -6 9 -8 13 -6
4 2 56 7 115 10 60 4 125 8 145 10 20 3 64 7 97 11 109 11 140 15 165 20 14 3
43 7 65 10 22 2 71 9 108 15 37 6 87 13 111 16 24 2 52 6 62 8 11 2 44 7 74
11 30 4 62 9 70 10 14 3 72 10 155 20 22 3 52 7 66 10 14 3 57 7 95 10 38 3
103 9 144 13 150 13 599 5 651 -12 8 -3 32 -7 54 -10 87 -11 241 -46 290 -66
11 -4 36 -14 55 -20 89 -32 208 -87 233 -108 9 -8 17 -12 17 -9 0 7 139 -86
206 -138 21 -16 89 -79 151 -140 140 -137 198 -170 292 -169 71 1 113 17 156
59 26 27 60 85 49 85 -4 0 -2 6 3 12 17 22 4 106 -24 166 -27 56 -133 171
-232 252 -24 19 -48 40 -55 45 -6 6 -36 29 -66 51 -288 217 -663 381 -980 429
-8 1 -31 5 -50 9 -175 33 -575 39 -815 11 -22 -2 -65 -7 -95 -10 -30 -3 -64
-7 -75 -9 -11 -2 -49 -7 -85 -11 -36 -4 -87 -11 -113 -16 -26 -5 -51 -8 -55
-8 -4 1 -9 0 -12 -1 -5 -2 -8 -2 -99 -14 -30 -4 -63 -10 -75 -12 -32 -7 -226
-35 -266 -39 -36 -3 -100 -12 -137 -19 -11 -3 -63 -8 -114 -12 -52 -4 -110 -8
-129 -10 -50 -4 -297 -4 -345 0 -138 13 -284 41 -340 66 -11 5 -38 14 -59 21
-74 22 -210 99 -306 172 -63 48 -250 231 -250 245 0 4 1086 7 2414 7 l2415 0
11 40 c6 22 12 49 15 60 2 11 10 49 19 85 8 36 17 79 20 95 3 17 7 41 11 55 3
14 7 41 10 60 2 19 9 59 14 88 6 29 13 82 16 118 4 36 8 75 11 87 26 125 26
689 0 837 -3 14 -7 43 -10 65 -3 22 -8 51 -11 65 -11 55 -13 66 -20 95 -4 17
-18 69 -32 117 -22 73 -28 86 -42 79 -34 -18 -259 -90 -333 -107 -10 -2 -28
-6 -40 -9 -24 -5 -56 -11 -108 -20 -16 -3 -45 -8 -62 -11 -133 -24 -377 -33
-548 -20 -137 10 -137 10 -280 36 -78 15 -239 59 -285 79 -11 5 -38 16 -60 24
-91 34 -292 139 -307 161 -5 8 -100 -43 -118 -64 -3 -3 -29 -21 -58 -39 -30
-19 -59 -39 -65 -46 -33 -32 -51 -34 -83 -7 -95 81 -234 183 -374 274 -149 98
-194 123 -375 212 -217 107 -415 178 -615 221 -90 20 -184 36 -235 41 -63 6
-373 13 -378 8z"/>
</g>
</svg>
